inDegrees=no
num_controls=7
num_derivatives=13
num_iterations=115
num_multipliers=7
num_parameters=0
num_slacks=7
num_states=26
objective=0.477041
objective_accelerations=0.044783
objective_balance=0.003687
objective_effort=0.040846
objective_height=0.382067
objective_ligament=0.005659
solver_duration=1608.167739
status=Solve_Succeeded
success=true
DataType=double
version=3
OpenSimVersion=4.5
endheader
time	/jointset/ground_pelvis/pelvis_tilt/value	/jointset/ground_pelvis/pelvis_tx/value	/jointset/ground_pelvis/pelvis_ty/value	/jointset/hip_l/hip_flexion_l/value	/jointset/hip_l/hip_adduction_l/value	/jointset/hip_l/hip_rotation_l/value	/jointset/back/lumbar_extension/value	/jointset/patellofemoral_l/patellar_flexion_l/value	/jointset/knee_l/knee_flexion_l/value	/jointset/knee_l/knee_adduction_l/value	/jointset/knee_l/knee_rotation_l/value	/jointset/ankle_l/ankle_angle_l/value	/jointset/subtalar_l/subtalar_angle_l/value	/jointset/ground_pelvis/pelvis_tilt/speed	/jointset/ground_pelvis/pelvis_tx/speed	/jointset/ground_pelvis/pelvis_ty/speed	/jointset/hip_l/hip_flexion_l/speed	/jointset/hip_l/hip_adduction_l/speed	/jointset/hip_l/hip_rotation_l/speed	/jointset/back/lumbar_extension/speed	/jointset/patellofemoral_l/patellar_flexion_l/speed	/jointset/knee_l/knee_flexion_l/speed	/jointset/knee_l/knee_adduction_l/speed	/jointset/knee_l/knee_rotation_l/speed	/jointset/ankle_l/ankle_angle_l/speed	/jointset/subtalar_l/subtalar_angle_l/speed	/forceset/tau_hip_flexion_l	/forceset/tau_hip_adduction_l	/forceset/tau_hip_rotation_l	/forceset/tau_knee_flexion_l	/forceset/tau_ankle_angle_l	/forceset/tau_subtalar_angle_l	/forceset/tau_lumbar_extension	lambda_cid13_p0	lambda_cid13_p1	lambda_cid13_p2	lambda_cid13_p3	lambda_cid13_p4	lambda_cid13_p5	lambda_cid14_p0	/jointset/ground_pelvis/pelvis_tilt/accel	/jointset/ground_pelvis/pelvis_tx/accel	/jointset/ground_pelvis/pelvis_ty/accel	/jointset/hip_l/hip_flexion_l/accel	/jointset/hip_l/hip_adduction_l/accel	/jointset/hip_l/hip_rotation_l/accel	/jointset/back/lumbar_extension/accel	/jointset/patellofemoral_l/patellar_flexion_l/accel	/jointset/knee_l/knee_flexion_l/accel	/jointset/knee_l/knee_adduction_l/accel	/jointset/knee_l/knee_rotation_l/accel	/jointset/ankle_l/ankle_angle_l/accel	/jointset/subtalar_l/subtalar_angle_l/accel	gamma_cid13_p0	gamma_cid13_p1	gamma_cid13_p2	gamma_cid13_p3	gamma_cid13_p4	gamma_cid13_p5	gamma_cid14_p0
0.5	-0.09753495919303204	-0.04357671376226759	0.8053082550600494	0.938469723198617	-0.3295653608553161	-0.07805241196723776	-0.7910683565696711	0.9238665400340025	0.9238665400340148	-0.1027497829224921	-0.1744982741277581	0.1471501387698196	0.01276121387805056	-0.1345344546654009	-0.1614139464428687	-0.4214944810776442	1.618717457768871	-0.02896124687691214	0.5648143965875405	-0.8399644857744835	1.789292496671328	1.789292496671184	0.1522069564188806	0.0001185735314858199	0.4268449605799711	0.1135896431390495	-0.2724688343487354	0.02292293373891153	-0.004878372980278303	-0.2488790745268084	0.09041225033091529	0.04316089087054861	0.3281722898771783	-15.11994532656409	-17.56952097505333	4.028291564718959	-9.890839772150558	-701.1637374476765	-72.78938259586282	-9.64868137716039	0.2941511473490029	0.6855681436920436	-0.1974336376701516	-1.518933334440125	0.3334402033837708	-0.5103785142381558	1.894876110231934	-1.415938555804728	-1.415938555804721	-0.2160430184633609	-0.002755081401762019	-0.2602732127162021	0.3423474360092539	-2.602799156445372e-07	-1.597458759609194e-07	1.552485390892808e-06	1.474234362545621e-07	-2.890594345489118e-07	-7.995768557044856e-08	-2.215792326031945e-07
0.51	-0.09886539049334286	-0.04515653409948697	0.8010843884518821	0.9545784722431869	-0.3298391467015925	-0.07242887869509307	-0.7993723294501188	0.9416858463081226	0.9416858463080756	-0.1012411376040049	-0.1744971089319356	0.1514045322631454	0.01391292523905173	-0.1315306601207345	-0.1545474761728805	-0.4231814592933321	1.602804861347441	-0.02580398641277655	0.5598255257587145	-0.8207370566385507	1.774311481338118	1.774311481338342	0.1495180505627865	0.0001134065753388317	0.423964627329793	0.1167253219806828	-0.278845977318119	0.02328859270167052	-0.005017981543262991	-0.2524981723709063	0.08943031438286644	0.04319152735392694	0.3345677773556817	-15.7054868327568	-17.41388203653529	3.927609813588413	-9.682136013783062	-705.8432835336201	-72.58000240370572	-8.921652736837785	0.3066413143750062	0.6876129698805317	-0.1397785960129024	-1.661578242332	0.3054486600054355	-0.5033539660120769	1.950631366769487	-1.577731198120837	-1.57773119806573	-0.295916847796733	0.0007480621228938208	-0.3122774863359021	0.2949219644016771	-2.516560675855715e-07	-1.572449386325539e-07	1.517432004843835e-06	1.430372242846972e-07	-2.759340864824202e-07	-5.0894328973829e-08	-2.178117884023835e-07
0.52	-0.1001651543069384	-0.04666760443376083	0.7968465623250591	0.9705212642342745	-0.3300816440048125	-0.06685727665099984	-0.8074812370289079	0.9593476327937013	0.9593476327936006	-0.09975950183979758	-0.1744959662927067	0.1556280496029357	0.01509514215970145	-0.1284009573220813	-0.147663945853766	-0.42428638480881	1.585526047072509	-0.02270353826555895	0.5544281509775979	-0.8009514254427933	1.757788538963236	1.757788538963827	0.1468050455621195	0.0001140622129546061	0.4206697298729233	0.1196907550687682	-0.2852231202875016	0.02365425166442262	-0.00515759010621752	-0.2561172702150056	0.08844837843481501	0.04322216383729587	0.3409632648341875	-16.29295834847901	-17.25806772897182	3.827087194443251	-9.518606146057268	-710.5842497638063	-72.42322802529131	-8.196780208641124	0.3193327981463859	0.6889801535173093	-0.08102309762818037	-1.792176905140615	0.3220777400001772	-0.592079304696247	2.006516522196883	-1.724323964139274	-1.724323964139265	-0.2208628473779114	-0.001590562649208818	-0.3431860540545282	0.3082982852996827	-2.483808560947482e-07	-2.149143659135683e-07	1.468351840126401e-06	1.312217320059108e-07	-2.690137952673706e-07	-3.986111950761975e-08	-2.199962324438154e-07
0.53	-0.1014330204215894	-0.0481098143112644	0.7926006187001016	0.9862845420260189	-0.3302934868429099	-0.06134188918812121	-0.8153896778359834	0.9768366124609127	0.9768366124609421	-0.09830501167345908	-0.1744950553945858	0.1598165929664424	0.0163060871743956	-0.1251545209418801	-0.1407808476230204	-0.4248032598045477	1.56691188171423	-0.01967677027377117	0.5485833588240673	-0.7806597627612463	1.739761686966221	1.73976168696659	0.1440906206367189	6.577769168187396e-05	0.4169755713525988	0.122467597319019	-0.2913157936120274	0.02389393118598313	-0.005251795210137664	-0.2598741124622844	0.08751792495323406	0.04311331678372794	0.3470761004433432	-16.86663659447282	-17.03656347962807	3.707492433047118	-9.272507992017077	-715.2289496807485	-72.18882251848363	-7.481749781681425	0.329937955248008	0.6875769645213647	-0.02221071961093409	-1.92871077791539	0.2910296632247441	-0.5907808975066013	2.052037122808974	-1.878677715659179	-1.878677715692408	-0.2971095446073477	-0.006511921904311656	-0.3920395211531162	0.2576497046855752	-2.391377423106972e-07	-2.176260346858496e-07	1.423992348826185e-06	1.255205054604749e-07	-2.564867004837153e-07	-1.480093031088792e-08	-2.155845957204605e-07
